<svg id="e3HbB102JV41" xmlns="http://www.w3.org/2000/svg" xmlns:xlink="http://www.w3.org/1999/xlink" viewBox="0 0 300 100" shape-rendering="geometricPrecision" text-rendering="geometricPrecision"><defs><linearGradient id="e3HbB102JV42-fill" x1="0" y1="0" x2="0.906308" y2="0.422618" spreadMethod="pad" gradientUnits="objectBoundingBox" gradientTransform="translate(0 0)"><stop id="e3HbB102JV42-fill-0" offset="0%" stop-color="#eb4c00"/><stop id="e3HbB102JV42-fill-1" offset="100%" stop-color="#f2a900"/></linearGradient></defs><rect width="300" height="300" rx="0" ry="0" transform="matrix(1 0 0 0.346982 0-2.0473)" fill="url(#e3HbB102JV42-fill)"/><g transform="matrix(2.98832 0 0 2.98832 38.0277 19.668302)"><path d="M7.74,14.35L4.55,4.58h-.69l-3.2,9.77h.53l1.04-3.16h3.94l1.04,3.16ZM6.05,10.74h-3.7l1.81-5.6h.07ZM9.72,4.58v5.86c0,3.03.61,4.08,2.88,4.08s2.88-1.05,2.88-4.08v-5.86h-.5v5.93c0,2.65-.45,3.55-2.38,3.55s-2.38-.9-2.38-3.55v-5.93Zm14.96.46v-.46h-7.36v.46h3.43v9.31h.5v-9.31Zm4.72,9.48c2.13,0,3.26-1.57,3.26-5.06c0-3.48-1.13-5.05-3.26-5.05s-3.26,1.57-3.26,5.05c0,3.49,1.13,5.06,3.26,5.06Zm0-.46c-1.79,0-2.7-1.4-2.7-4.06v-1.07c0-2.66.91-4.06,2.7-4.06s2.7,1.4,2.7,4.06v1.07c0,2.66-.91,4.06-2.7,4.06Zm19.74.29v-.42h-2.69v-8.93h2.69v-.42h-5.88v.42h2.69v8.93h-2.69v.42Zm8.97,0v-.46h-2.87v-9.31h-.82l-2.93,2.5.31.35l2.88-2.47h.06v8.93h-3.01v.46Zm4.89.17c2.03,0,3.25-1.11,3.25-2.72c0-1.37-.81-2.29-2.12-2.55v-.07c1.1-.25,1.8-1.09,1.8-2.32c0-1.5-1.12-2.45-2.93-2.45s-2.93.95-2.93,2.45c0,1.23.7,2.07,1.8,2.32v.07c-1.31.26-2.12,1.18-2.12,2.55c0,1.61,1.22,2.72,3.25,2.72Zm0-.45c-1.65,0-2.7-.87-2.7-2.14v-.35c0-1.28,1.05-2.14,2.7-2.14s2.7.86,2.7,2.14v.35c0,1.27-1.05,2.14-2.7,2.14ZM63,9c-1.46,0-2.38-.75-2.38-1.92v-.3c0-1.17.92-1.92,2.38-1.92s2.38.75,2.38,1.92v.3C65.38,8.25,64.46,9,63,9Zm10.56,5.35h.72v-9.77h-.47v9.07h-.06L69.24,4.58h-.72v9.77h.47v-9.1h.06Z" fill="#fff"/></g></svg>
