<svg data-v-fde0c5aa="" xmlns="http://www.w3.org/2000/svg" viewBox="0 0 300 300" class="iconAbove"><!----><defs data-v-fde0c5aa=""><linearGradient data-v-fde0c5aa="" gradientTransform="rotate(25)" id="d6ef783d-7197-4588-8a4c-b2c44eb8becd" x1="0%" y1="0%" x2="100%" y2="0%"><stop data-v-fde0c5aa="" offset="0%" stop-color="#EB4C00" stop-opacity="1"></stop><stop data-v-fde0c5aa="" offset="100%" stop-color="#F2A900" stop-opacity="1"></stop></linearGradient></defs><rect data-v-fde0c5aa="" fill="url(#d6ef783d-7197-4588-8a4c-b2c44eb8becd)" x="0" y="0" width="300px" height="300px" class="logo-background-square"></rect><defs data-v-fde0c5aa=""><!----></defs><g data-v-fde0c5aa="" id="3e29c651-ceb1-4ce2-9865-7a8bdec55e8c" fill="#ffffff" transform="matrix(3.5316492426566293,0,0,3.5316492426566293,17.669111407225436,161.27791537817424)"><path d="M7.74 14.35L4.55 4.58L3.86 4.58L0.66 14.35L1.19 14.35L2.23 11.19L6.17 11.19L7.21 14.35ZM6.05 10.74L2.35 10.74L4.16 5.14L4.23 5.14ZM9.72 4.58L9.72 10.44C9.72 13.47 10.33 14.52 12.60 14.52C14.87 14.52 15.48 13.47 15.48 10.44L15.48 4.58L14.98 4.58L14.98 10.51C14.98 13.16 14.53 14.06 12.60 14.06C10.67 14.06 10.22 13.16 10.22 10.51L10.22 4.58ZM24.68 5.04L24.68 4.58L17.32 4.58L17.32 5.04L20.75 5.04L20.75 14.35L21.25 14.35L21.25 5.04ZM29.40 14.52C31.53 14.52 32.66 12.95 32.66 9.46C32.66 5.98 31.53 4.41 29.40 4.41C27.27 4.41 26.14 5.98 26.14 9.46C26.14 12.95 27.27 14.52 29.40 14.52ZM29.40 14.06C27.61 14.06 26.70 12.66 26.70 10.00L26.70 8.93C26.70 6.27 27.61 4.87 29.40 4.87C31.19 4.87 32.10 6.27 32.10 8.93L32.10 10.00C32.10 12.66 31.19 14.06 29.40 14.06ZM49.14 14.35L49.14 13.93L46.45 13.93L46.45 5.00L49.14 5.00L49.14 4.58L43.26 4.58L43.26 5.00L45.95 5.00L45.95 13.93L43.26 13.93L43.26 14.35ZM58.11 14.35L58.11 13.89L55.24 13.89L55.24 4.58L54.42 4.58L51.49 7.08L51.80 7.43L54.68 4.96L54.74 4.96L54.74 13.89L51.73 13.89L51.73 14.35ZM63 14.52C65.03 14.52 66.25 13.41 66.25 11.80C66.25 10.43 65.44 9.51 64.13 9.25L64.13 9.18C65.23 8.93 65.93 8.09 65.93 6.86C65.93 5.36 64.81 4.41 63 4.41C61.19 4.41 60.07 5.36 60.07 6.86C60.07 8.09 60.77 8.93 61.87 9.18L61.87 9.25C60.56 9.51 59.75 10.43 59.75 11.80C59.75 13.41 60.97 14.52 63 14.52ZM63 14.07C61.35 14.07 60.30 13.20 60.30 11.93L60.30 11.58C60.30 10.30 61.35 9.44 63 9.44C64.65 9.44 65.70 10.30 65.70 11.58L65.70 11.93C65.70 13.20 64.65 14.07 63 14.07ZM63 9.00C61.54 9.00 60.62 8.25 60.62 7.08L60.62 6.78C60.62 5.61 61.54 4.86 63 4.86C64.46 4.86 65.38 5.61 65.38 6.78L65.38 7.08C65.38 8.25 64.46 9.00 63 9.00ZM73.56 14.35L74.28 14.35L74.28 4.58L73.81 4.58L73.81 13.65L73.75 13.65L69.24 4.58L68.52 4.58L68.52 14.35L68.99 14.35L68.99 5.25L69.05 5.25Z"></path></g><defs data-v-fde0c5aa=""><!----></defs><g data-v-fde0c5aa="" id="afd29bca-ac51-4066-8256-95a4f2e79632" stroke="none" fill="#ffffff" transform="matrix(2.2315609999253847,0,0,2.2315609999253847,114.29502400119384,87.44253600179077)"><path d="M9.382 8.675h13.943v13.943L32 31.293V0H.707zM22.618 23.325H8.675V9.382L0 .707V32h31.293z"></path></g><!----></svg>